<svg class="SVG-module-scss-module__2HqbCq__svg-raw-wrap LogoGrid-module-scss-module__kche6q__logo-grid__logo" fill="none" height="37" style="--width:201;--height:37" viewbox="0 0 201 37" width="201" xmlns="http://www.w3.org/2000/svg">
<path clip-rule="evenodd" d="M115.28 6.09665H106.064V0H115.28V6.09665ZM62.9551 36.4225H72.1687V0.00195312H62.9551V36.4225ZM18.8983 10.4722C20.1959 12.078 20.8446 14.5427 20.8446 17.865C20.8446 21.421 20.1575 24.0634 18.7878 25.7905C17.4166 27.5207 15.2631 28.3828 12.3243 28.3828H10.1708V8.06667H12.9853C15.6311 8.06667 17.5991 8.86802 18.8983 10.4722ZM25.9492 31.5093C29.2377 28.2355 30.882 23.5716 30.882 17.519C30.882 11.8943 29.319 7.59618 26.1946 4.61843C23.0687 1.6422 18.6328 0.15332 12.8871 0.15332H0.5V36.4221H12.0788C18.0377 36.4221 22.6607 34.7845 25.9492 31.5093ZM195.201 26.5107C192.276 26.5107 189.9 28.8602 189.9 31.756C189.9 34.6517 192.276 36.9996 195.201 36.9996C198.128 36.9996 200.501 34.6517 200.501 31.756C200.501 28.8602 198.128 26.5107 195.201 26.5107ZM86.031 28.1474C85.4189 26.9302 85.1122 25.159 85.1122 22.8369C85.1122 20.5117 85.4189 18.7649 86.031 17.5947C86.6445 16.4261 87.6553 15.8387 89.0694 15.8387C90.5158 15.8387 91.5358 16.4291 92.134 17.6084C92.7306 18.7846 93.0282 20.5269 93.0282 22.8369C93.0282 25.159 92.7353 26.9302 92.1463 28.1474C91.5573 29.3661 90.5464 29.9747 89.1169 29.9747C87.6721 29.9747 86.6445 29.3661 86.031 28.1474ZM98.8843 33.1862C101.234 30.7123 102.406 27.261 102.406 22.8369C102.406 20.0185 101.862 17.5537 100.769 15.4471C99.6789 13.3375 98.1266 11.7181 96.1158 10.5874C94.1065 9.45673 91.7874 8.89062 89.166 8.89062C84.9235 8.89062 81.6288 10.1124 79.2791 12.5559C76.9293 14.9994 75.7559 18.4264 75.7559 22.8369C75.7559 27.1502 76.9538 30.5711 79.3511 33.1027C81.7454 35.6342 84.9711 36.9 89.0234 36.9C93.249 36.9 96.5361 35.6615 98.8843 33.1862ZM106.064 36.4224H115.28V22.4837V9.36914H106.064V36.4224ZM133.95 29.5217C135.194 29.5217 136.675 29.209 138.404 28.5883V35.3952C137.162 35.9355 135.981 36.3226 134.858 36.5517C133.735 36.7839 132.417 36.8993 130.91 36.8993C127.816 36.8993 125.586 36.1298 124.216 34.5939C122.853 33.058 122.169 30.6994 122.169 27.5168V16.3647H118.941V9.37103H122.169V2.46241L131.454 0.864258V9.37103H137.333V16.3647H131.454V26.8945C131.454 28.646 132.287 29.5217 133.95 29.5217ZM159.732 28.5883C158.003 29.209 156.522 29.5217 155.278 29.5217C153.613 29.5217 152.781 28.646 152.781 26.8945V16.3647H158.663V9.37103H152.781V0.864258L143.496 2.35769V9.37103H140.268V16.3647H143.496V27.5168C143.496 30.6994 144.18 33.058 145.547 34.5939C146.914 36.1298 149.144 36.8993 152.238 36.8993C153.748 36.8993 155.061 36.7839 156.186 36.5517C157.308 36.3226 158.491 35.9355 159.732 35.3952V28.5883ZM171.359 19.5414C171.485 18.0601 171.913 16.9749 172.643 16.2813C173.376 15.5893 174.281 15.2432 175.364 15.2432C176.545 15.2432 177.483 15.6318 178.18 16.4149C178.881 17.1935 179.246 18.2362 179.275 19.5414H171.359ZM184.353 12.0803C182.163 9.95552 179.055 8.8916 175.035 8.8916C170.81 8.8916 167.558 10.1134 165.279 12.5569C163.001 15.0004 161.861 18.5063 161.861 23.0746C161.861 27.4988 163.093 30.9106 165.55 33.3055C168.009 35.7005 171.461 36.8995 175.908 36.8995C178.043 36.8995 179.881 36.7553 181.421 36.4684C182.951 36.1846 184.433 35.6716 185.87 34.931L184.455 28.8343C183.41 29.2563 182.416 29.5811 181.477 29.7951C180.122 30.1062 178.634 30.2625 177.014 30.2625C175.238 30.2625 173.836 29.833 172.808 28.974C171.781 28.1134 171.233 26.9266 171.17 25.4149H187.64V21.261C187.64 17.2648 186.545 14.2036 184.353 12.0803ZM44.3945 16.2813C43.6645 16.9749 43.2365 18.0601 43.1107 19.5414H51.0283C50.996 18.2362 50.6326 17.1935 49.9317 16.4149C49.2337 15.6318 48.295 15.2432 47.1171 15.2432C46.0326 15.2432 45.1261 15.5893 44.3945 16.2813ZM46.7873 8.8916C50.8089 8.8916 53.915 9.95552 56.1067 12.0803C58.297 14.2036 59.3923 17.2648 59.3923 21.261V25.4149H42.9221C42.9849 26.9266 43.531 28.1134 44.5602 28.974C45.5879 29.833 46.9913 30.2625 48.7659 30.2625C50.3857 30.2625 51.8719 30.1062 53.2309 29.7951C54.168 29.5811 55.1619 29.2563 56.2065 28.8343L57.6237 34.931C56.185 35.6716 54.7033 36.1846 53.1726 36.4684C51.6326 36.7553 49.7951 36.8995 47.66 36.8995C43.2134 36.8995 39.7608 35.7005 37.3037 33.3055C34.8434 30.9106 33.6133 27.4988 33.6133 23.0746C33.6133 18.5063 34.7544 15.0004 37.0321 12.5569C39.3099 10.1134 42.56 8.8916 46.7873 8.8916Z" fill="currentColor" fill-rule="evenodd"></path>
</svg>