<svg class="SVG-module-scss-module__2HqbCq__svg-raw-wrap LogoGrid-module-scss-module__kche6q__logo-grid__logo" fill="none" height="38" style="--width:126;--height:38" viewbox="0 0 126 38" width="126" xmlns="http://www.w3.org/2000/svg">
<path d="M107.422 6.3592C107.905 6.3592 108.355 6.46127 108.734 6.69945C109.598 7.14178 110.149 8.06289 110.149 9.08608V16.7588H117.677C119.196 16.7588 120.404 17.9521 120.404 19.4516C120.404 20.9512 119.196 22.1445 117.677 22.1445H110.149V29.4429C110.149 30.9424 108.941 32.1357 107.422 32.1357H86.4626C84.9442 32.1357 83.7359 30.9424 83.7359 29.4429V19.3155C83.8048 17.884 85.0131 16.7247 86.4626 16.7247H104.693V11.7449H83.6645L73.6854 30.0578C73.5131 30.8768 72.9939 31.5913 72.2014 31.968C71.8225 32.1382 71.4066 32.2402 71.0276 32.2402C70.0949 32.2402 69.1622 31.7639 68.6798 30.9108C68.5765 30.7747 68.5076 30.6046 68.4387 30.4345L60.5661 15.1571L52.5902 30.0942C52.2457 30.8792 51.7264 31.5938 50.934 32.0045C50.555 32.1746 50.1391 32.2767 49.7602 32.2767C48.8275 32.2767 47.8948 31.8003 47.4124 30.9473C47.3091 30.8112 47.2402 30.6411 47.1712 30.4709L37.5367 11.8178H21.4446V16.7976H34.463C35.9814 16.7976 37.1897 17.991 37.1897 19.4905C37.1897 20.99 35.9814 22.1834 34.463 22.1834H21.4446V29.6179C21.4446 31.1174 20.2363 32.3107 18.7179 32.3107C17.1995 32.3107 15.9912 31.1174 15.9912 29.6179V22.1834H8.32535C6.80695 22.1834 5.59863 20.99 5.59863 19.4905C5.59863 17.991 6.80695 16.7976 8.32535 16.7976H15.8534V9.12496C15.8534 8.10178 16.4415 7.21469 17.2684 6.73834C17.6474 6.53419 18.0977 6.39808 18.5801 6.39808H38.9862C39.4341 6.39808 39.85 6.50016 40.2289 6.70431C40.8171 6.94249 41.2995 7.38725 41.5751 7.9997L49.6543 23.6513L57.7336 8.71423C58.147 7.89519 58.3562 7.14664 59.252 6.73591C59.631 6.56578 60.0469 6.4637 60.4259 6.4637C61.1174 6.4637 61.772 6.70188 62.2568 7.18066C62.7391 7.55494 62.9828 7.82957 63.3273 8.47605L70.9587 23.6513L79.5227 7.96567C79.7295 7.5914 80.0395 7.28274 80.421 7.04456C80.9033 6.67029 81.4915 6.42968 82.183 6.42968H107.425M89.0884 26.7209H104.696V22.1518H89.0884V26.7209ZM107.422 0.834961H82.1805C80.3496 0.834961 78.5556 1.44985 77.1036 2.54108C76.102 3.22402 75.2727 4.1427 74.687 5.16589L74.6525 5.23394L74.6181 5.30199L71.1309 11.7133C71.1309 11.7133 67.0901 3.8705 65.8818 2.91536C64.3634 1.61997 62.4291 0.903011 60.4259 0.903011C59.1831 0.903011 57.9403 1.17521 56.8009 1.72205C54.6254 2.74523 53.4171 4.65551 52.4155 6.87201L49.7921 11.7133L46.5806 5.50614C45.7513 3.83404 44.3362 2.4706 42.6087 1.68802C41.4693 1.14362 40.2265 0.868986 38.9837 0.868986H18.5776C17.197 0.868986 15.814 1.20924 14.6057 1.85815C11.9134 3.28964 10.2547 6.087 10.2547 9.08851V11.237H8.32043C3.72832 11.237 0 14.919 0 19.454C0 23.9891 3.72832 27.6736 8.32289 27.6736H10.2572V29.5838C10.2572 34.1189 13.9855 37.8034 18.5801 37.8034C23.1746 37.8034 26.903 34.1213 26.903 29.5838V27.6736H34.2932C35.8805 27.6736 37.4013 27.2312 38.6786 26.4462L41.959 32.7895C42.1312 33.1638 42.3035 33.5065 42.5102 33.8467C44.0286 36.3014 46.7234 37.8034 49.6223 37.8034C50.8651 37.8034 52.1079 37.5312 53.2473 36.9843C55.285 36.0292 57.0445 34.3936 57.9428 32.3132L60.325 27.0951L63.2953 32.8235C63.4676 33.1978 63.6398 33.5405 63.8466 33.8807C65.365 36.3354 68.0597 37.8374 70.9587 37.8374C72.2014 37.8374 73.4442 37.5652 74.5836 37.0184C76.4835 36.0972 77.9674 34.4956 78.7279 32.5854C79.9706 35.5869 82.9754 37.7013 86.4626 37.7013H107.422C112.014 37.7013 115.745 34.1554 115.745 29.6203V27.71H117.68C122.272 27.71 126.002 24.028 126.002 19.4905C126.002 14.953 122.274 11.271 117.68 11.271H115.745V9.12253C115.745 6.087 114.089 3.32609 111.394 1.89217C110.186 1.17521 108.805 0.834961 107.422 0.834961Z" fill="currentColor"></path>
</svg>